<svg width="18" height="24" viewBox="0 0 18 24" fill="none" xmlns="http://www.w3.org/2000/svg">
<g clip-path="url(#clip0_37_1681)">
<path d="M6.8807 14.4003C4.24466 14.4003 2.10773 12.3855 2.10773 9.90022C2.10773 7.41496 4.24466 5.40029 6.8807 5.40029C9.51674 5.40029 9.51674 14.4003 6.8807 14.4003Z" fill="url(#paint0_linear_37_1681)"/>
<path fill-rule="evenodd" clip-rule="evenodd" d="M10.242 11.3995C10.1738 11.3943 10.1098 11.3628 10.0618 11.3109C10.0138 11.259 9.9852 11.1902 9.98129 11.1174C9.97739 11.0447 9.99846 10.9728 10.0406 10.9154C10.0827 10.858 10.143 10.8189 10.2101 10.8054L15.5462 9.6078C15.5827 9.59853 15.6207 9.59716 15.6577 9.60379C15.6948 9.61041 15.7302 9.62488 15.7619 9.64635C15.7936 9.66782 15.821 9.69583 15.8424 9.72877C15.8638 9.76171 15.8788 9.79889 15.8865 9.83811C15.8942 9.87734 15.8945 9.91781 15.8873 9.95715C15.8801 9.99648 15.8656 10.0339 15.8446 10.0671C15.8236 10.1004 15.7966 10.1288 15.7652 10.1508C15.7337 10.1727 15.6985 10.1877 15.6615 10.1949L10.3255 11.3925C10.2981 11.3992 10.27 11.4017 10.242 11.3995Z" fill="url(#paint1_linear_37_1681)"/>
<path fill-rule="evenodd" clip-rule="evenodd" d="M10.242 13.7996C10.1738 13.7944 10.1098 13.7629 10.0618 13.711C10.0138 13.659 9.9852 13.5902 9.98129 13.5175C9.97739 13.4447 9.99846 13.3729 10.0406 13.3155C10.0827 13.258 10.143 13.219 10.2101 13.2055L15.5462 12.0078C15.5827 11.9986 15.6206 11.9973 15.6576 12.0039C15.6946 12.0106 15.73 12.0251 15.7617 12.0466C15.7934 12.068 15.8207 12.0961 15.8421 12.129C15.8635 12.1619 15.8784 12.1991 15.8861 12.2383C15.8938 12.2775 15.8941 12.3179 15.8869 12.3572C15.8797 12.3965 15.8653 12.4339 15.8443 12.4671C15.8234 12.5004 15.7964 12.5288 15.765 12.5507C15.7336 12.5727 15.6985 12.5877 15.6615 12.595L10.3255 13.7926C10.2981 13.7993 10.27 13.8018 10.242 13.7996Z" fill="url(#paint2_linear_37_1681)"/>
<path fill-rule="evenodd" clip-rule="evenodd" d="M10.242 6.59964C10.1738 6.59442 10.1098 6.5629 10.0618 6.51098C10.0138 6.45906 9.9852 6.39027 9.98129 6.31749C9.97739 6.24471 9.99846 6.17289 10.0406 6.11548C10.0827 6.05806 10.143 6.01899 10.2101 6.00551L15.5462 4.80784C15.5827 4.79864 15.6206 4.79731 15.6576 4.80397C15.6946 4.81063 15.73 4.82512 15.7617 4.8466C15.7934 4.86808 15.8207 4.8961 15.8421 4.92902C15.8635 4.96194 15.8784 4.99911 15.8861 5.0383C15.8938 5.07749 15.8941 5.11789 15.8869 5.15719C15.8797 5.19649 15.8653 5.23385 15.8443 5.26709C15.8234 5.30033 15.7964 5.32881 15.765 5.35076C15.7336 5.37271 15.6985 5.38769 15.6615 5.39491L10.3255 6.59258C10.2981 6.59928 10.27 6.60182 10.242 6.59964Z" fill="url(#paint3_linear_37_1681)"/>
<path fill-rule="evenodd" clip-rule="evenodd" d="M10.242 8.99956C10.1738 8.99434 10.1098 8.96282 10.0618 8.9109C10.0138 8.85898 9.9852 8.79019 9.98129 8.71741C9.97739 8.64463 9.99846 8.57281 10.0406 8.5154C10.0827 8.45798 10.143 8.41891 10.2101 8.40543L15.5462 7.20776C15.5827 7.1985 15.6207 7.19713 15.6577 7.20375C15.6948 7.21037 15.7302 7.22484 15.7619 7.24631C15.7936 7.26778 15.821 7.29586 15.8424 7.3288C15.8638 7.36174 15.8788 7.39892 15.8865 7.43815C15.8942 7.47737 15.8945 7.51785 15.8873 7.55718C15.8801 7.59651 15.8656 7.6339 15.8446 7.66715C15.8236 7.7004 15.7966 7.72881 15.7652 7.75075C15.7337 7.77268 15.6985 7.78773 15.6615 7.7949L10.3255 8.99257C10.2981 8.99927 10.27 9.00174 10.242 8.99956Z" fill="url(#paint4_linear_37_1681)"/>
</g>
<defs>
<linearGradient id="paint0_linear_37_1681" x1="5.48273" y1="5.40029" x2="5.48273" y2="14.4003" gradientUnits="userSpaceOnUse">
<stop stop-color="#0048FF"/>
<stop offset="1" stop-color="#004099"/>
</linearGradient>
<linearGradient id="paint1_linear_37_1681" x1="12.9367" y1="9.59966" x2="12.9367" y2="11.4001" gradientUnits="userSpaceOnUse">
<stop stop-color="#0048FF"/>
<stop offset="1" stop-color="#004099"/>
</linearGradient>
<linearGradient id="paint2_linear_37_1681" x1="12.9365" y1="11.9998" x2="12.9365" y2="13.8002" gradientUnits="userSpaceOnUse">
<stop stop-color="#0048FF"/>
<stop offset="1" stop-color="#004099"/>
</linearGradient>
<linearGradient id="paint3_linear_37_1681" x1="12.9365" y1="4.7998" x2="12.9365" y2="6.60017" gradientUnits="userSpaceOnUse">
<stop stop-color="#0048FF"/>
<stop offset="1" stop-color="#004099"/>
</linearGradient>
<linearGradient id="paint4_linear_37_1681" x1="12.9367" y1="7.19963" x2="12.9367" y2="9.00015" gradientUnits="userSpaceOnUse">
<stop stop-color="#0048FF"/>
<stop offset="1" stop-color="#004099"/>
</linearGradient>
<clipPath id="clip0_37_1681">
<rect width="18" height="24" fill="white"/>
</clipPath>
</defs>
</svg>
