<svg width="14" height="11" viewBox="0 0 14 11" fill="none" xmlns="http://www.w3.org/2000/svg">
<g clip-path="url(#clip0_37_1690)">
<path d="M7 0C8.34859 0 9.56977 0.615815 10.4538 1.61097C11.3375 2.60613 11.8844 3.98155 11.8844 5.50015C11.8844 7.01875 11.3375 8.39387 10.4538 9.38903C9.56977 10.3842 8.34859 11 7 11C5.65141 11 4.43023 10.3842 3.54621 9.38903C2.66246 8.39387 2.11559 7.01875 2.11559 5.50015C2.11559 3.98155 2.66246 2.60613 3.54621 1.61097C4.43023 0.615815 5.65141 0 7 0ZM9.08414 6.19787V5.833C9.08414 5.77419 9.05434 5.74463 8.995 5.74463H8.65293C8.47738 5.74463 8.35324 5.70122 8.28078 5.61439C8.20832 5.52725 8.17223 5.40224 8.17223 5.23905V4.70976C8.17223 4.37814 8.34531 4.21218 8.6923 4.21218H9.18039C9.52711 4.21218 9.70047 4.37906 9.70047 4.70976V4.96285H9.07703V4.80182C9.07703 4.74301 9.04641 4.71376 8.98789 4.71376H8.88453C8.8252 4.71376 8.79566 4.74301 8.79566 4.80182V5.18301C8.79566 5.24182 8.8252 5.27138 8.88453 5.27138H9.21949C9.39531 5.27138 9.52055 5.31264 9.5952 5.39577C9.67012 5.4786 9.70758 5.60022 9.70758 5.76064V6.29024C9.70758 6.62186 9.53422 6.78782 9.1875 6.78782H8.70297C8.35434 6.78782 8.17906 6.62186 8.17906 6.29024V6.0119H8.80277V6.19787C8.80277 6.25637 8.8323 6.28624 8.89164 6.28624H8.995C9.05434 6.28624 9.08414 6.25668 9.08414 6.19787ZM7.32785 5.17901V4.76179C7.32785 4.70298 7.29777 4.67373 7.23871 4.67373H6.9166V5.26738H7.23871C7.29805 5.26738 7.32785 5.23782 7.32785 5.17901ZM7.32785 6.23821V5.81699C7.32785 5.75818 7.29777 5.72862 7.23871 5.72862H6.9166V6.32658H7.23871C7.29805 6.32658 7.32785 6.29702 7.32785 6.23821ZM6.36945 4.21218H7.41699C7.7659 4.21218 7.94062 4.37814 7.94062 4.70976V5.0386C7.94062 5.27138 7.88348 5.42256 7.76945 5.49184C7.83617 5.52417 7.88129 5.57282 7.9048 5.6384C7.92859 5.70399 7.94062 5.79297 7.94062 5.90505V6.29024C7.94062 6.62186 7.7659 6.78782 7.41699 6.78782H6.36945V4.21218ZM5.6 6.78782L5.52863 6.40263H4.98012L4.9052 6.78782H4.29242L4.88031 4.21218H5.6391L6.22699 6.78782H5.6ZM5.05422 5.90505H5.45426L5.25793 4.97856L5.05422 5.90505ZM12.5073 0.635213C12.9806 1.31415 13.3582 2.08731 13.6158 2.92759C13.8646 3.73923 14 4.60507 14 5.50015C14 6.3857 13.869 7.23952 13.6279 8.03854C13.3785 8.86343 13.0102 9.62858 12.5459 10.3069L11.6225 9.50388C12.012 8.93449 12.3156 8.29681 12.5213 7.6164C12.7209 6.95502 12.8294 6.24314 12.8294 5.50015C12.8294 4.74332 12.7184 4.02158 12.5139 3.35496C12.3017 2.66279 11.9864 2.01957 11.588 1.44871L12.5073 0.635213ZM1.45633 10.31C0.991484 9.63166 0.622617 8.8662 0.372969 8.04008C0.13125 7.24076 0 6.38631 0 5.50015C0 4.5986 0.136719 3.72784 0.387734 2.91311C0.645202 2.08207 1.02431 1.30538 1.50937 0.615199L2.42375 1.42869C2.02344 1.99832 1.70516 2.64431 1.48969 3.34326V3.34572C1.28297 4.01604 1.17059 4.74116 1.17059 5.50015C1.17059 6.24375 1.27914 6.95625 1.4793 7.61794C1.68521 8.29906 1.98943 8.93728 2.37973 9.50696L1.45633 10.31ZM9.62609 2.54301C8.95398 1.78617 8.02566 1.31815 7 1.31815C5.97434 1.31815 5.04574 1.78617 4.37391 2.54301C3.7018 3.29954 3.28617 4.34519 3.28617 5.50015C3.28617 6.65512 3.7018 7.70046 4.37391 8.4573C5.04574 9.21383 5.97434 9.68216 7 9.68216C8.02566 9.68216 8.95398 9.21383 9.62609 8.4573C10.2982 7.70046 10.7138 6.65512 10.7138 5.50015C10.7138 4.34519 10.2982 3.29954 9.62609 2.54301Z" fill="url(#paint0_linear_37_1690)"/>
</g>
<defs>
<linearGradient id="paint0_linear_37_1690" x1="7" y1="0" x2="7" y2="11" gradientUnits="userSpaceOnUse">
<stop stop-color="#FF8400"/>
<stop offset="1" stop-color="#714000"/>
</linearGradient>
<clipPath id="clip0_37_1690">
<rect width="14" height="11" fill="white"/>
</clipPath>
</defs>
</svg>
