<svg width="11" height="14" viewBox="0 0 11 14" fill="none" xmlns="http://www.w3.org/2000/svg">
<g clip-path="url(#clip0_37_1698)">
<path d="M5.50002 8.01762C4.91478 8.01762 4.42511 8.51655 4.42511 9.11225C4.42511 9.70795 4.91478 10.2069 5.50002 10.2069C6.08525 10.2069 6.57509 9.70812 6.57509 9.11225C6.57509 8.51637 6.08508 8.01762 5.50002 8.01762Z" fill="url(#paint0_linear_37_1698)"/>
<path d="M6.86763 3.1304C6.86763 3.01367 6.79218 2.91112 6.68218 2.8784L5.30958 2.47012L6.64694 2.07217H4.80891L4.31838 2.21812C4.0769 2.29005 4.0769 2.6502 4.31838 2.72212L5.6908 3.1304L4.31838 3.53867C4.0769 3.6106 4.0769 3.97075 4.31838 4.04267L5.69115 4.45112L4.31838 4.85957C4.0769 4.9315 4.0769 5.29165 4.31838 5.36357L5.6908 5.77185L4.31838 6.18012C4.0769 6.25187 4.07707 6.61185 4.31821 6.68395L5.96357 7.175L5.42337 7.49665C5.68668 7.4844 5.94552 7.53602 6.18357 7.65222L6.73993 7.32077C6.9314 7.2065 6.8941 6.90532 6.68218 6.84232L5.30855 6.43247L6.68201 6.02385C6.92349 5.9521 6.92332 5.59177 6.68201 5.52002L5.30941 5.11175L6.68201 4.7033C6.92349 4.63137 6.92349 4.27122 6.68201 4.1993L5.30958 3.79085L6.68201 3.38257C6.79218 3.34967 6.86763 3.24695 6.86763 3.1304Z" fill="url(#paint1_linear_37_1698)"/>
<path d="M2.55354 2.45858C2.44835 2.35148 2.28318 2.35148 2.17799 2.45858L1.45646 3.2389C1.22959 3.48443 1.60273 3.8465 1.83201 3.59888L2.10787 3.30033V5.0722C2.10787 5.41083 2.62349 5.41083 2.62349 5.0722V3.30033L2.89935 3.59888C3.12864 3.84668 3.50178 3.48443 3.2749 3.2389L2.55354 2.45858Z" fill="url(#paint2_linear_37_1698)"/>
<path d="M2.89973 8.67965L2.62387 8.9782V7.2072C2.62387 6.86858 2.10824 6.86858 2.10824 7.2072V8.9782L1.83238 8.67965C1.60448 8.43308 1.2291 8.79288 1.45684 9.03963L2.17837 9.8203C2.27616 9.92898 2.45595 9.92898 2.55391 9.8203L3.27545 9.03963C3.50301 8.79288 3.12746 8.4329 2.89973 8.67965Z" fill="url(#paint3_linear_37_1698)"/>
</g>
<defs>
<linearGradient id="paint0_linear_37_1698" x1="5.5001" y1="8.01762" x2="5.5001" y2="10.2069" gradientUnits="userSpaceOnUse">
<stop stop-color="#FF9100"/>
<stop offset="1" stop-color="#995700"/>
</linearGradient>
<linearGradient id="paint1_linear_37_1698" x1="5.50245" y1="2.07217" x2="5.50245" y2="7.65222" gradientUnits="userSpaceOnUse">
<stop stop-color="#FF9100"/>
<stop offset="1" stop-color="#995700"/>
</linearGradient>
<linearGradient id="paint2_linear_37_1698" x1="2.36568" y1="2.37825" x2="2.36568" y2="5.32617" gradientUnits="userSpaceOnUse">
<stop stop-color="#FF9100"/>
<stop offset="1" stop-color="#995700"/>
</linearGradient>
<linearGradient id="paint3_linear_37_1698" x1="2.36609" y1="6.95323" x2="2.36609" y2="9.90181" gradientUnits="userSpaceOnUse">
<stop stop-color="#FF9100"/>
<stop offset="1" stop-color="#995700"/>
</linearGradient>
<clipPath id="clip0_37_1698">
<rect width="11" height="14" fill="white"/>
</clipPath>
</defs>
</svg>
