<svg width="10" height="12" viewBox="0 0 10 12" fill="none" xmlns="http://www.w3.org/2000/svg">
<g clip-path="url(#clip0_37_1692)">
<path d="M7.75391 0.599998L3.56445 6.88125L1.72852 6C1.41266 5.84883 1.03699 5.97832 0.878906 6.28125C0.800781 6.43183 0.7901 6.60146 0.849609 6.75937L1.40625 8.25H0.625V9H3.64258L5.20508 6.64687L9.23828 0.599998H7.75391ZM1.46484 6.23437C1.50716 6.23692 1.55151 6.25254 1.5918 6.27187L3.39844 7.13437L2.65625 8.25H1.73828L1.14258 6.65625C1.11206 6.57539 1.11267 6.48926 1.15234 6.4125C1.213 6.29626 1.33789 6.22672 1.46484 6.23437Z" fill="url(#paint0_linear_37_1692)"/>
<path d="M7.66904 3.98027L7.28635 3.88593C7.25309 3.87773 7.21922 3.89707 7.21067 3.92929C7.20579 3.94746 7.21005 3.96738 7.22257 3.98203L7.4719 4.27617L7.08952 4.18183C7.05625 4.17363 7.02207 4.19297 7.01353 4.2249C7.00864 4.24336 7.0129 4.26298 7.02573 4.27793L7.27506 4.57148L6.89237 4.47744C6.85911 4.46924 6.82493 4.48857 6.81638 4.5205C6.8115 4.53925 6.81576 4.55859 6.82859 4.57353L7.07792 4.86738L6.69553 4.77304C6.66196 4.76484 6.62778 4.78418 6.61924 4.8164C6.61436 4.83486 6.61861 4.85449 6.63145 4.86914L6.88078 5.16328L6.49839 5.06894C6.46482 5.06074 6.43064 5.08008 6.4221 5.11201C6.41721 5.13046 6.42179 5.15009 6.4343 5.16504L6.68394 5.45888L6.30125 5.36455C6.26768 5.35635 6.2335 5.37568 6.22495 5.40761C6.22007 5.42636 6.22465 5.4457 6.23716 5.46064L6.48679 5.75449L6.1041 5.66015C6.07053 5.65195 6.03666 5.67129 6.02811 5.70351C6.02292 5.72197 6.02781 5.7416 6.04002 5.75625L6.65525 6.48105L6.26829 7.06172C6.17063 7.20791 5.96799 7.25068 5.81541 7.15722C5.66312 7.06347 5.61857 6.86894 5.71592 6.72246C5.76261 6.65273 5.74155 6.56015 5.66892 6.51533C5.59598 6.4708 5.49924 6.49101 5.45286 6.56074C5.26243 6.84668 5.3494 7.22695 5.64695 7.40976C5.9448 7.59257 6.34092 7.50937 6.53135 7.22343L7.04038 6.45996L6.76206 6.13213L7.14475 6.22646C7.17832 6.23466 7.2125 6.21533 7.22105 6.18339C7.22593 6.16464 7.22135 6.14531 7.20884 6.13037L6.95921 5.83652L7.3419 5.93086C7.37546 5.93906 7.40934 5.91972 7.41789 5.8875C7.42307 5.86904 7.41819 5.84941 7.40598 5.83476L7.15635 5.54062L7.53904 5.63496C7.5723 5.64316 7.60648 5.62382 7.61503 5.5916C7.61991 5.57343 7.61533 5.55351 7.60313 5.53886L7.35349 5.24502L7.73618 5.33906C7.76945 5.34756 7.80332 5.32822 7.81187 5.29599C7.81705 5.27754 7.81249 5.2582 7.79996 5.24326L7.55063 4.94941L7.93302 5.04375C7.96659 5.05195 8.00046 5.03261 8.00901 5.00039C8.01389 4.98193 8.00963 4.9623 7.99711 4.94765L7.74778 4.65351L8.13016 4.74785C8.16343 4.75605 8.19761 4.73672 8.20615 4.70449C8.21103 4.68632 8.20678 4.6664 8.19394 4.65175L7.94462 4.35791L8.32731 4.45195C8.36057 4.46045 8.39475 4.44082 8.40329 4.40888C8.40818 4.39043 8.40392 4.37109 8.39109 4.35615L8.14176 4.0623L8.52414 4.15664C8.55771 4.16484 8.59189 4.1455 8.60044 4.11328C8.60532 4.09482 8.60106 4.07519 8.58823 4.06054L8.3386 3.7664L8.76523 3.87158L9.27427 3.10781C9.4647 2.82187 9.37742 2.44218 9.07987 2.25908C8.78202 2.07597 8.38621 2.15976 8.19578 2.4457C8.14908 2.51543 8.17014 2.608 8.24277 2.65254C8.31571 2.69736 8.41245 2.67714 8.45884 2.60742C8.55649 2.46093 8.75913 2.41816 8.91141 2.51191C9.0637 2.60537 9.10825 2.7999 9.0106 2.94609L8.62363 3.52675L7.68064 3.29472C7.64707 3.28652 7.6132 3.30586 7.60465 3.33779C7.59977 3.35625 7.60435 3.37588 7.61655 3.39082L7.86619 3.68437L7.4835 3.59033C7.45023 3.58213 7.41636 3.60146 7.40751 3.6334C7.40262 3.65215 7.4072 3.67148 7.41971 3.68613L7.66904 3.98027Z" fill="url(#paint1_linear_37_1692)"/>
<path d="M6.16364 6.89209C6.16364 6.80127 6.08704 6.72774 5.99213 6.72774C5.89752 6.72774 5.82092 6.80127 5.82092 6.89209C5.82092 6.98291 5.89752 7.05645 5.99213 7.05645C6.08704 7.05645 6.16364 6.98291 6.16364 6.89209Z" fill="url(#paint2_linear_37_1692)"/>
</g>
<defs>
<linearGradient id="paint0_linear_37_1692" x1="4.93164" y1="0.599998" x2="4.93164" y2="9" gradientUnits="userSpaceOnUse">
<stop stop-color="#FF9100"/>
<stop offset="1" stop-color="#995700"/>
</linearGradient>
<linearGradient id="paint1_linear_37_1692" x1="7.36352" y1="2.16207" x2="7.36352" y2="7.50673" gradientUnits="userSpaceOnUse">
<stop stop-color="#FF9100"/>
<stop offset="1" stop-color="#995700"/>
</linearGradient>
<linearGradient id="paint2_linear_37_1692" x1="5.99228" y1="6.72774" x2="5.99228" y2="7.05645" gradientUnits="userSpaceOnUse">
<stop stop-color="#FF9100"/>
<stop offset="1" stop-color="#995700"/>
</linearGradient>
<clipPath id="clip0_37_1692">
<rect width="10" height="12" fill="white"/>
</clipPath>
</defs>
</svg>
