<svg width="17" height="11" viewBox="0 0 17 11" fill="none" xmlns="http://www.w3.org/2000/svg">
<g filter="url(#filter0_i_101_503)">
<path fill-rule="evenodd" clip-rule="evenodd" d="M0.410742 7.26175H9.84121C10.0671 7.26175 10.252 7.44384 10.252 7.66621V9.63898C10.252 9.79925 10.3398 9.93602 10.4872 10.004C10.6347 10.0728 10.7975 10.0527 10.9227 9.95113L13.6347 7.75765L16.6312 5.33433C16.7293 5.25461 16.7812 5.14721 16.7812 5.02218C16.7812 4.89716 16.7293 4.78891 16.6312 4.71003L13.6347 2.28671L10.9227 0.0932347C10.7975 -0.0082997 10.6338 -0.0284386 10.4872 0.0403709C10.3398 0.109178 10.252 0.245955 10.252 0.405385V2.37816C10.252 2.60053 10.0671 2.78261 9.84121 2.78261H0.410742C0.184881 2.78261 -5.34058e-05 2.9647 -5.34058e-05 3.18706V6.85739C-5.34058e-05 7.0806 0.18404 7.26175 0.410742 7.26175Z" fill="url(#paint0_linear_101_503)"/>
</g>
<defs>
<filter id="filter0_i_101_503" x="-0.9" y="0" width="17.6812" height="10.9443" filterUnits="userSpaceOnUse" color-interpolation-filters="sRGB">
<feFlood flood-opacity="0" result="BackgroundImageFix"/>
<feBlend mode="normal" in="SourceGraphic" in2="BackgroundImageFix" result="shape"/>
<feColorMatrix in="SourceAlpha" type="matrix" values="0 0 0 0 0 0 0 0 0 0 0 0 0 0 0 0 0 0 127 0" result="hardAlpha"/>
<feOffset dx="-1" dy="1"/>
<feGaussianBlur stdDeviation="0.45"/>
<feComposite in2="hardAlpha" operator="arithmetic" k2="-1" k3="1"/>
<feColorMatrix type="matrix" values="0 0 0 0 0.0666667 0 0 0 0 1 0 0 0 0 0 0 0 0 1 0"/>
<feBlend mode="normal" in2="shape" result="effect1_innerShadow_101_503"/>
</filter>
<linearGradient id="paint0_linear_101_503" x1="8.3906" y1="0" x2="8.3906" y2="10.0444" gradientUnits="userSpaceOnUse">
<stop stop-color="#11FF00"/>
<stop offset="1" stop-color="#0A9900"/>
</linearGradient>
</defs>
</svg>
