<svg width="17" height="11" viewBox="0 0 17 11" fill="none" xmlns="http://www.w3.org/2000/svg">
<g filter="url(#filter0_i_101_504)">
<path fill-rule="evenodd" clip-rule="evenodd" d="M16.3705 7.26175H6.94004C6.71418 7.26175 6.52924 7.44384 6.52924 7.66621V9.63898C6.52924 9.79925 6.44146 9.93602 6.29402 10.004C6.14658 10.0728 5.98379 10.0527 5.85851 9.95113L3.14651 7.75765L0.15 5.33433C0.0519884 5.25461 0 5.14721 0 5.02218C0 4.89716 0.0519884 4.78891 0.15 4.71003L3.14651 2.28671L5.85851 0.0932347C5.98379 -0.0082997 6.14743 -0.0284386 6.29402 0.0403709C6.44146 0.109178 6.52924 0.245955 6.52924 0.405385V2.37816C6.52924 2.60053 6.71419 2.78261 6.94004 2.78261H16.3705C16.5964 2.78261 16.7813 2.9647 16.7813 3.18706V6.85739C16.7813 7.0806 16.5972 7.26175 16.3705 7.26175Z" fill="url(#paint0_linear_101_504)"/>
</g>
<defs>
<filter id="filter0_i_101_504" x="-0.9" y="0" width="17.6812" height="10.9443" filterUnits="userSpaceOnUse" color-interpolation-filters="sRGB">
<feFlood flood-opacity="0" result="BackgroundImageFix"/>
<feBlend mode="normal" in="SourceGraphic" in2="BackgroundImageFix" result="shape"/>
<feColorMatrix in="SourceAlpha" type="matrix" values="0 0 0 0 0 0 0 0 0 0 0 0 0 0 0 0 0 0 127 0" result="hardAlpha"/>
<feOffset dx="-1" dy="1"/>
<feGaussianBlur stdDeviation="0.45"/>
<feComposite in2="hardAlpha" operator="arithmetic" k2="-1" k3="1"/>
<feColorMatrix type="matrix" values="0 0 0 0 0.0666667 0 0 0 0 1 0 0 0 0 0 0 0 0 1 0"/>
<feBlend mode="normal" in2="shape" result="effect1_innerShadow_101_504"/>
</filter>
<linearGradient id="paint0_linear_101_504" x1="8.39065" y1="0" x2="8.39065" y2="10.0444" gradientUnits="userSpaceOnUse">
<stop stop-color="#11FF00"/>
<stop offset="1" stop-color="#0A9900"/>
</linearGradient>
</defs>
</svg>
